# xmcd
#
# Track frame offsets: 
#        150
#        45322
#        69155
#        86937
#        122260
#        153907
#        200306
#        253850
#        300117
#
# Disc length: 4370 seconds
#
# Revision: 0
# Processed by: cddbd v1.5.2PL0 Copyright (c) Steve Scherf et al.
# Submitted via: ExactAudioCopy v1.0b3
#
DISCID=62111009
DTITLE=Quench - Dreams and Hope
DYEAR=1900
DGENRE=
TTITLE0=Dreams (The Awakening)
TTITLE1=Global Harmony
TTITLE2=Redemption (Ambient)
TTITLE3=Be Good To Me (Our House Remix)
TTITLE4=Hope (Part 3)
TTITLE5=Redemption (Olias Mix)
TTITLE6=Platform 9 (Solar Flare)
TTITLE7=Dreams 2001
TTITLE8=Dreams (Original Version)
EXTD=
EXTT0=
EXTT1=
EXTT2=
EXTT3=
EXTT4=
EXTT5=
EXTT6=
EXTT7=
EXTT8=
PLAYORDER=
